<?xml version="1.0" encoding="UTF-8"?>
<svg xmlns="http://www.w3.org/2000/svg" viewBox="0 0 1450 1120" width="1450" height="1120">
  <defs>
    <linearGradient id="presGrad" x1="0" y1="0" x2="0" y2="1">
      <stop offset="0%" stop-color="#0a3d62"/><stop offset="100%" stop-color="#1e6091"/>
    </linearGradient>
    <linearGradient id="offGrad" x1="0" y1="0" x2="0" y2="1">
      <stop offset="0%" stop-color="#2c3e50"/><stop offset="100%" stop-color="#4a6375"/>
    </linearGradient>
  </defs>
  <style>
    text { font-family: "Microsoft JhengHei","PingFang TC",sans-serif; }
    .th { font-size: 13px; font-weight: bold; fill: #fff; }
    .g { font-size: 11px; fill: #555; }
    .n { font-size: 11px; font-weight: bold; fill: #333; }
    .r { font-size: 10px; fill: #888; }
  </style>
  <rect width="1450" height="1120" fill="#f5f7fa"/>

  <!-- Title -->
  <text x="725" y="40" text-anchor="middle" font-size="22" font-weight="bold" fill="#1a1a2e">雲林雲嶺扶輪社 2026-2027 年度組織架構圖</text>
  <line x1="380" y1="52" x2="1070" y2="52" stroke="#c0c8d0" stroke-width="1"/>

  <!-- ===== LEVEL 1: 理事會 (TOP) ===== -->
  <rect x="80" y="70" width="1290" height="40" rx="6" fill="#34495e"/>
  <text x="725" y="95" text-anchor="middle" font-size="14" font-weight="bold" fill="#ecf0f1">理 事 會</text>

  <!-- Line Board → President -->
  <line x1="725" y1="110" x2="725" y2="135" stroke="#8a9da8" stroke-width="1.5"/>

  <!-- ===== LEVEL 2: 社長 ===== -->
  <rect x="585" y="135" width="280" height="50" rx="8" fill="url(#presGrad)"/>
  <text x="725" y="155" text-anchor="middle" font-size="12" fill="#a0c8ff">社　　長</text>
  <text x="725" y="175" text-anchor="middle" font-size="16" font-weight="bold" fill="#fff">陳建華</text>

  <!-- ===== LEVEL 3: 三長 ===== -->
  <rect x="425" y="225" width="160" height="42" rx="6" fill="url(#offGrad)"/>
  <text x="505" y="243" text-anchor="middle" font-size="10" fill="#b0c4de">秘　書</text>
  <text x="505" y="260" text-anchor="middle" font-size="13" font-weight="bold" fill="#fff">賴贊升</text>
  <rect x="645" y="225" width="160" height="42" rx="6" fill="url(#offGrad)"/>
  <text x="725" y="243" text-anchor="middle" font-size="10" fill="#b0c4de">財　務</text>
  <text x="725" y="260" text-anchor="middle" font-size="13" font-weight="bold" fill="#fff">陳月姿</text>
  <rect x="865" y="225" width="160" height="42" rx="6" fill="url(#offGrad)"/>
  <text x="945" y="243" text-anchor="middle" font-size="10" fill="#b0c4de">糾　察</text>
  <text x="945" y="260" text-anchor="middle" font-size="13" font-weight="bold" fill="#fff">陳月惠</text>

  <!-- Lines President → Officers -->
  <line x1="675" y1="185" x2="505" y2="225" stroke="#8a9da8" stroke-width="1.5"/>
  <line x1="725" y1="185" x2="725" y2="225" stroke="#8a9da8" stroke-width="1.5"/>
  <line x1="775" y1="185" x2="945" y2="225" stroke="#8a9da8" stroke-width="1.5"/>

  <!-- Trunk line → Committees -->
  <line x1="80" y1="300" x2="1370" y2="300" stroke="#8a9da8" stroke-width="2"/>
  <line x1="280" y1="300" x2="280" y2="325" stroke="#8a9da8" stroke-width="1.5"/>
  <line x1="725" y1="300" x2="725" y2="325" stroke="#8a9da8" stroke-width="1.5"/>
  <line x1="1170" y1="300" x2="1170" y2="325" stroke="#8a9da8" stroke-width="1.5"/>

  <!-- Connect officers to trunk -->
  <line x1="505" y1="267" x2="505" y2="300" stroke="#8a9da8" stroke-width="1.5"/>
  <line x1="725" y1="267" x2="725" y2="300" stroke="#8a9da8" stroke-width="1.5"/>
  <line x1="945" y1="267" x2="945" y2="300" stroke="#8a9da8" stroke-width="1.5"/>

  <!-- ===== LEVEL 4: 六大委員會 ROW 1 ===== -->
  <!-- 社務行政委員會 -->
  <rect x="60" y="325" width="420" height="220" rx="6" fill="#fff" stroke="#e74c3c" stroke-width="2"/>
  <rect x="60" y="325" width="420" height="34" rx="6" fill="#e74c3c"/>
  <rect x="60" y="353" width="420" height="6" fill="#e74c3c"/>
  <text x="270" y="347" text-anchor="middle" class="th">社務行政委員會</text>
  <text x="80" y="382" class="g">社刊雜誌</text><text x="155" y="382" class="r">主委</text><text x="190" y="382" class="n">莊純青</text><text x="260" y="382" class="r">副主委</text><text x="315" y="382" class="n">曾旭暉</text>
  <text x="80" y="404" class="g">節目計畫</text><text x="155" y="404" class="r">主委</text><text x="190" y="404" class="n">林蔚芳</text><text x="260" y="404" class="r">副主委</text><text x="315" y="404" class="n">鄭燕苓</text>
  <text x="80" y="426" class="g">聯誼小組</text><text x="155" y="426" class="r">主委</text><text x="190" y="426" class="n">沈雅琪</text><text x="260" y="426" class="r">副主委</text><text x="315" y="426" class="n">吳昱緯</text>
  <text x="80" y="448" class="g">出席小組</text><text x="155" y="448" class="r">主委</text><text x="190" y="448" class="n">陳煜焜</text><text x="260" y="448" class="r">副主委</text><text x="315" y="448" class="n">劉惠美</text>
  <text x="80" y="470" class="g">膳食小組</text><text x="155" y="470" class="r">主委</text><text x="190" y="470" class="n">鄭品芳</text><text x="260" y="470" class="r">副主委</text><text x="315" y="470" class="n">曾紹文</text>
  <text x="80" y="492" class="g">DEI 小組</text><text x="155" y="492" class="r">主委</text><text x="190" y="492" class="n">蔡函霖</text><text x="260" y="492" class="r">副主委</text><text x="315" y="492" class="n">陳嘉偉</text>
  <text x="270" y="530" text-anchor="middle" font-size="11" fill="#c0392b">主任委員：丁奕綺</text>

  <!-- 社員服務委員會 -->
  <rect x="515" y="325" width="420" height="220" rx="6" fill="#fff" stroke="#e67e22" stroke-width="2"/>
  <rect x="515" y="325" width="420" height="34" rx="6" fill="#e67e22"/>
  <rect x="515" y="353" width="420" height="6" fill="#e67e22"/>
  <text x="725" y="347" text-anchor="middle" class="th">社員服務委員會</text>
  <text x="535" y="382" class="g">職業分類</text><text x="610" y="382" class="r">小組長</text><text x="655" y="382" class="n">蔡函霖</text><text x="725" y="382" class="r">組員</text><text x="765" y="382" class="n">林蔚芳</text>
  <text x="535" y="404" class="g">社員發展</text><text x="610" y="404" class="r">小組長</text><text x="655" y="404" class="n">丁奕綺</text><text x="725" y="404" class="r">組員</text><text x="765" y="404" class="n">張錫輝</text>
  <text x="535" y="426" class="g">扶輪知識</text><text x="610" y="426" class="r">小組長</text><text x="655" y="426" class="n">沈雅琪</text><text x="725" y="426" class="r">組員</text><text x="765" y="426" class="n">莊純青</text>
  <text x="725" y="530" text-anchor="middle" font-size="11" fill="#e67e22">主任委員：曾旭暉</text>

  <!-- 公共形象委員會 -->
  <rect x="970" y="325" width="420" height="220" rx="6" fill="#fff" stroke="#27ae60" stroke-width="2"/>
  <rect x="970" y="325" width="420" height="34" rx="6" fill="#27ae60"/>
  <rect x="970" y="353" width="420" height="6" fill="#27ae60"/>
  <text x="1180" y="347" text-anchor="middle" class="th">公共形象委員會</text>
  <text x="990" y="382" class="g">公共形象</text><text x="1065" y="382" class="r">小組長</text><text x="1105" y="382" class="n">丁奕綺</text><text x="1175" y="382" class="r">組員</text><text x="1215" y="382" class="n">陳月惠</text>
  <text x="990" y="404" class="g">媒體關係</text><text x="1065" y="404" class="r">小組長</text><text x="1105" y="404" class="n">蔡函霖</text><text x="1175" y="404" class="r">組員</text><text x="1215" y="404" class="n">陳月姿</text>
  <text x="990" y="426" class="g">網站管理</text><text x="1065" y="426" class="r">小組長</text><text x="1105" y="426" class="n">莊純青</text><text x="1175" y="426" class="r">組員</text><text x="1215" y="426" class="n">李承豪</text>
  <text x="1180" y="530" text-anchor="middle" font-size="11" fill="#27ae60">主任委員：陳弘耀</text>

  <!-- ===== ROW 2 ===== -->
  <line x1="280" y1="545" x2="280" y2="590" stroke="#8a9da8" stroke-width="1.5"/>
  <line x1="725" y1="545" x2="725" y2="590" stroke="#8a9da8" stroke-width="1.5"/>
  <line x1="1170" y1="545" x2="1170" y2="590" stroke="#8a9da8" stroke-width="1.5"/>

  <!-- 扶輪基金委員會 -->
  <rect x="60" y="590" width="420" height="190" rx="6" fill="#fff" stroke="#2980b9" stroke-width="2"/>
  <rect x="60" y="590" width="420" height="34" rx="6" fill="#2980b9"/>
  <rect x="60" y="618" width="420" height="6" fill="#2980b9"/>
  <text x="270" y="612" text-anchor="middle" class="th">扶輪基金委員會</text>
  <text x="80" y="647" class="g">年度基金捐獻</text><text x="170" y="647" class="r">小組長</text><text x="215" y="647" class="n">丁奕綺</text><text x="290" y="647" class="r">組員</text><text x="330" y="647" class="n">尹玲瑛</text>
  <text x="80" y="669" class="g">中華扶輪基金</text><text x="170" y="669" class="r">小組長</text><text x="215" y="669" class="n">張祐誠</text><text x="290" y="669" class="r">組員</text><text x="330" y="669" class="n">張錫輝</text>
  <text x="80" y="691" class="g">根除小兒麻痺</text><text x="170" y="691" class="r">小組長</text><text x="215" y="691" class="n">王文麗</text><text x="290" y="691" class="r">組員</text><text x="330" y="691" class="n">廖家伯</text>
  <text x="270" y="765" text-anchor="middle" font-size="11" fill="#2980b9">主任委員：鄭燕苓</text>

  <!-- 服務計畫委員會 -->
  <rect x="515" y="590" width="420" height="190" rx="6" fill="#fff" stroke="#8e44ad" stroke-width="2"/>
  <rect x="515" y="590" width="420" height="34" rx="6" fill="#8e44ad"/>
  <rect x="515" y="618" width="420" height="6" fill="#8e44ad"/>
  <text x="725" y="612" text-anchor="middle" class="th">服務計畫委員會</text>
  <text x="535" y="647" class="g">友 好 社</text><text x="610" y="647" class="r">小組長</text><text x="655" y="647" class="n">李佩芳</text><text x="725" y="647" class="r">組員</text><text x="765" y="647" class="n">賴贊升</text>
  <text x="535" y="669" class="g">職業服務</text><text x="610" y="669" class="r">小組長</text><text x="655" y="669" class="n">章豑尹</text><text x="725" y="669" class="r">組員</text><text x="765" y="669" class="n">張詩梅</text>
  <text x="535" y="691" class="g">社區服務</text><text x="610" y="691" class="r">小組長</text><text x="655" y="691" class="n">鄭燕苓</text><text x="725" y="691" class="r">組員</text><text x="765" y="691" class="n">王文麗</text>
  <text x="535" y="713" class="g">國際服務</text><text x="610" y="713" class="r">小組長</text><text x="655" y="713" class="n">陳偉嘉</text><text x="725" y="713" class="r">組員</text><text x="765" y="713" class="n">劉惠美</text>
  <text x="535" y="735" class="g">青 少 年</text><text x="610" y="735" class="r">小組長</text><text x="655" y="735" class="n">丁奕綺</text><text x="725" y="735" class="r">組員</text><text x="765" y="735" class="n">沈雅琪</text>
  <text x="535" y="757" class="g">環境保護</text><text x="610" y="757" class="r">小組長</text><text x="655" y="757" class="n">陳弘耀</text><text x="725" y="757" class="r">組員</text><text x="765" y="757" class="n">尹玲瑛</text>
  <text x="725" y="778" text-anchor="middle" font-size="11" fill="#8e44ad">主任委員：陳明杰</text>

  <!-- 運動休閒委員會 -->
  <rect x="970" y="590" width="420" height="190" rx="6" fill="#fff" stroke="#16a085" stroke-width="2"/>
  <rect x="970" y="590" width="420" height="34" rx="6" fill="#16a085"/>
  <rect x="970" y="618" width="420" height="6" fill="#16a085"/>
  <text x="1180" y="612" text-anchor="middle" class="th">運動休閒委員會</text>
  <text x="1180" y="662" text-anchor="middle" font-size="12" fill="#555">主任委員：<tspan font-weight="bold" fill="#333">張詩梅</tspan></text>
  <line x1="1030" y1="684" x2="1330" y2="684" stroke="#ddd" stroke-width="1"/>
  <text x="1180" y="715" text-anchor="middle" font-size="12" fill="#555">社學習引導人：<tspan font-weight="bold" fill="#333">廖淑媛</tspan></text>
  <text x="1145" y="742" font-size="10" fill="#888">扶輪義工｜小組長：李承豪　組員：張祐誠</text>

  <!-- Link to Projects -->
  <line x1="725" y1="780" x2="725" y2="840" stroke="#8a9da8" stroke-width="1.5" stroke-dasharray="4,3"/>

  <!-- ===== 年度重點計畫 ===== -->
  <rect x="60" y="840" width="1330" height="140" rx="6" fill="#f0f4f8" stroke="#34495e" stroke-width="1.5"/>
  <rect x="60" y="840" width="1330" height="30" rx="6" fill="#34495e"/>
  <rect x="60" y="864" width="1330" height="6" fill="#34495e"/>
  <text x="725" y="861" text-anchor="middle" font-size="13" font-weight="bold" fill="#fff">年 度 重 點 計 畫</text>

  <!-- Grid: 4 columns x 3 rows -->
  <text x="80"  y="895" class="g">內輪會</text>          <text x="150" y="895" class="r">主委</text><text x="185" y="895" class="n">陳妍心</text><text x="260" y="895" font-size="9" fill="#999">（陳建華夫人）</text>
  <text x="450" y="895" class="g">扶輪公益網</text>      <text x="535" y="895" class="r">主委</text><text x="570" y="895" class="n">章豑尹</text>
  <text x="740" y="895" class="g">送 Eye 到偏鄉</text>  <text x="845" y="895" class="r">主委</text><text x="880" y="895" class="n">陳明杰</text>
  <text x="1080" y="895" class="g">麥寮識字計畫</text>  <text x="1185" y="895" class="r">主委</text><text x="1220" y="895" class="n">丁奕綺</text>

  <text x="80"  y="918" class="g">慢飛天使</text>        <text x="150" y="918" class="r">主委</text><text x="185" y="918" class="n">賴贊升</text>
  <text x="450" y="918" class="g">崙背 AI 機器人</text> <text x="555" y="918" class="r">主委</text><text x="590" y="918" class="n">廖淑媛</text>
  <text x="740" y="918" class="g">扶少團</text>          <text x="795" y="918" class="r">主委</text><text x="825" y="918" class="n">高培書</text>
  <text x="1080" y="918" class="g">扶輪之子</text>       <text x="1155" y="918" class="r">主委</text><text x="1190" y="918" class="n">莊純青</text>

  <text x="80"  y="941" class="g">生命橋梁</text>        <text x="150" y="941" class="r">主委</text><text x="185" y="941" class="n">高培書</text>
  <text x="450" y="941" class="g">斗六超音波計畫</text>  <text x="560" y="941" class="r">主委</text><text x="595" y="941" class="n">陳弘耀</text>

  <!-- Footer -->
  <text x="725" y="1030" text-anchor="middle" font-size="10" fill="#aaa">雲林雲嶺扶輪社  Rotary Club of Yunlin Yunling  |  2026 - 2027</text>
</svg>
